<svg id="Layer_1" data-name="Layer 1" xmlns="http://www.w3.org/2000/svg" viewBox="0 0 1024 1024"><defs><style>.cls-1{fill:#26244f;}.cls-2{fill:#22b24b;}.cls-3{fill:#252856;}.cls-4{fill:#fff;}</style></defs><path class="cls-1" d="M76.35,930.05H87.94c8.84,0,14.85,5.58,14.85,13.75s-6,13.75-14.85,13.75H76.35Zm11.36,24.08c6.79,0,11.16-4.16,11.16-10.33s-4.37-10.34-11.16-10.34H80.28v20.67Z"/><path class="cls-1" d="M121.41,930.05h3.93v27.5h-3.93Z"/><path class="cls-1" d="M165.26,943.64H169v10.73a16.23,16.23,0,0,1-10.41,3.49c-8.45,0-14.66-5.93-14.66-14.06s6.21-14.07,14.73-14.07c4.37,0,8.06,1.46,10.57,4.24l-2.43,2.44a10.92,10.92,0,0,0-8-3.18c-6.36,0-11,4.44-11,10.57s4.6,10.57,10.92,10.57a11.65,11.65,0,0,0,6.45-1.77Z"/><path class="cls-1" d="M189.14,930.05h3.93v27.5h-3.93Z"/><path class="cls-1" d="M219.39,933.46H210v-3.41h22.75v3.41h-9.43v24.09h-3.89Z"/><path class="cls-1" d="M265.75,950.67H251.13l-3,6.88h-4l12.45-27.5h3.89l12.5,27.5h-4.13Zm-1.38-3.14-5.93-13.48-5.93,13.48Z"/><path class="cls-1" d="M289.59,930.05h3.93v24.08h14.89v3.42H289.59Z"/><path class="cls-1" d="M370.91,939.63c0,6-4.32,9.59-11.47,9.59h-6.8v8.33h-3.93v-27.5h10.73C366.59,930.05,370.91,933.66,370.91,939.63Zm-3.93,0c0-3.93-2.63-6.17-7.66-6.17h-6.68V945.8h6.68C364.35,945.8,367,943.56,367,939.63Z"/><path class="cls-1" d="M389.29,930.05h3.93v24.08h14.89v3.42H389.29Z"/><path class="cls-1" d="M442.88,950.67H428.26l-3,6.88h-4.05l12.46-27.5h3.89L450,957.55h-4.12Zm-1.38-3.14-5.93-13.48-5.93,13.48Z"/><path class="cls-1" d="M470.81,933.46h-9.43v-3.41h22.75v3.41H474.7v24.09h-3.89Z"/><path class="cls-1" d="M505,933.46v9.59h13.79v3.38H505v11.12H501v-27.5h19.41v3.41Z"/><path class="cls-1" d="M536,943.8c0-8.06,6.21-14.07,14.66-14.07s14.57,6,14.57,14.07-6.2,14.06-14.57,14.06S536,951.85,536,943.8Zm25.3,0a10.69,10.69,0,1,0-10.64,10.57A10.32,10.32,0,0,0,561.32,943.8Z"/><path class="cls-1" d="M602.26,957.55l-5.94-8.45c-.55,0-1.13.08-1.72.08h-6.8v8.37h-3.93v-27.5H594.6c7.15,0,11.47,3.61,11.47,9.58a8.69,8.69,0,0,1-6.05,8.69l6.52,9.23Zm-.12-17.92c0-3.93-2.63-6.17-7.66-6.17H587.8v12.38h6.68C599.51,945.84,602.14,943.56,602.14,939.63Z"/><path class="cls-1" d="M650.54,957.55l0-20-9.94,16.7h-1.81l-9.94-16.58v19.92H625v-27.5h3.22l11.47,19.33,11.32-19.33h3.22l0,27.5Z"/><path class="cls-1" d="M722,950.12c0,4.72-3.58,7.43-10.53,7.43H698.35v-27.5h12.33c6.33,0,9.86,2.67,9.86,7.11a6.52,6.52,0,0,1-3.69,6.13A6.64,6.64,0,0,1,722,950.12Zm-19.73-16.89V942h8.06c4,0,6.29-1.49,6.29-4.4s-2.28-4.4-6.29-4.4ZM718,949.81c0-3.18-2.36-4.6-6.72-4.6h-9v9.16h9C715.67,954.37,718,953,718,949.81Z"/><path class="cls-1" d="M740.46,945.68V930.05h3.93v15.48c0,6.09,2.79,8.84,7.74,8.84s7.78-2.75,7.78-8.84V930.05h3.81v15.63c0,8-4.36,12.18-11.63,12.18S740.46,953.66,740.46,945.68Z"/><path class="cls-1" d="M784.38,930.05h3.93v27.5h-3.93Z"/><path class="cls-1" d="M809.17,930.05h3.92v24.08H828v3.42H809.17Z"/><path class="cls-1" d="M845.11,930.05H856.7c8.84,0,14.85,5.58,14.85,13.75s-6,13.75-14.85,13.75H845.11Zm11.36,24.08c6.79,0,11.16-4.16,11.16-10.33s-4.37-10.34-11.16-10.34H849v20.67Z"/><path class="cls-1" d="M910.13,954.13v3.42h-20v-27.5h19.41v3.41H894.1v8.45h13.79v3.34H894.1v8.88Z"/><path class="cls-1" d="M947.49,957.55l-5.93-8.45c-.55,0-1.14.08-1.73.08H933v8.37H929.1v-27.5h10.73c7.15,0,11.47,3.61,11.47,9.58a8.69,8.69,0,0,1-6,8.69l6.52,9.23Zm-.12-17.92c0-3.93-2.63-6.17-7.66-6.17H933v12.38h6.68C944.74,945.84,947.37,943.56,947.37,939.63Z"/><path class="cls-2" d="M106,894.22H72.23v-1.9l19.11-45.51H73.72V836.3H107v2L88,883.71h18Z"/><path class="cls-2" d="M119.47,854.42l-3.8-8.36L139,835.3h2v58.92H130.56V849.37Z"/><path class="cls-2" d="M179.63,894.22H168.08V836.48h34.65V847h-23.1v12.79h19.31v10.4H179.63Z"/><path class="cls-2" d="M414.56,836.48H433a18.1,18.1,0,0,1,12.38,4.45,14.51,14.51,0,0,1,5,11.3,14.72,14.72,0,0,1-5.11,11.55,16.19,16.19,0,0,1,2.47,25.66,18.44,18.44,0,0,1-12.87,4.78H414.56Zm11.55,22.85h5.44c4,0,7.26-2.64,7.26-6.19s-3.05-6.19-7.26-6.19h-5.44Zm0,24.42h7.34c4.62,0,7.92-2.81,7.92-7,0-4-3.3-7-7.92-7h-7.34Z"/><path class="cls-3" d="M558,885.73l9.08-5.37c1.48,2.89,4,4.38,7.67,4.38,4.37,0,7.67-2.64,7.67-6.27,0-5-5.85-6.77-11.79-9.82s-11.8-7.18-11.8-16.42c0-5,1.57-9.07,4.78-12.12a16.93,16.93,0,0,1,12.3-4.62c7.34,0,13.11,3.63,16.17,9.48L583,850.34a6.63,6.63,0,0,0-6.6-4.38c-3.71,0-6.52,2.48-6.52,5.86,0,5,5.86,6.77,11.8,9.82s11.8,7.17,11.8,16.41c0,5.2-1.65,9.33-5,12.46s-7.76,4.7-13.12,4.7C567.44,895.21,561.25,891.58,558,885.73Z"/><path class="cls-3" d="M668,894.22V836.48h11.55v47.27h23.1v10.47Z"/><path class="cls-2" d="M209,894.22V836.48h11.55v47.27h23.1v10.47Z"/><path class="cls-3" d="M709.07,836.48h11.55v35.14a12.75,12.75,0,0,0,3.06,8.66,9.49,9.49,0,0,0,14.93,0,13.14,13.14,0,0,0,3-8.66V841.41l11.55-.18v32.45a20.08,20.08,0,0,1-6.27,15.1,23.29,23.29,0,0,1-31.43,0,20.12,20.12,0,0,1-6.36-15.1Z"/><path class="cls-3" d="M760.39,836.48V847h13.85v47.28h11.55V847h13.78V836.48ZM741.52,847h11.63V836.48H741.52Z"/><path class="cls-2" d="M387.9,854.85l5.89,2.89,5.66-2.89v39.37H387.9Z"/><path class="cls-2" d="M399.43,840.3v2.91c0,.9,0,1.81,0,2.71a1.07,1.07,0,0,1-.33.78c-1.66,1-3.35,2-5.09,3,0-.19,0-.31,0-.43,0-1.81,0-3.62,0-5.42a.79.79,0,0,1,.3-.59c1.62-1,3.25-1.9,4.88-2.84A1.14,1.14,0,0,1,399.43,840.3Z"/><path class="cls-2" d="M399.11,839.71c-1.82,1-3.54,2-5.28,3a.63.63,0,0,1-.51-.07c-1.69-.95-3.36-1.93-5.12-2.95l3.1-1.79c.63-.37,1.25-.75,1.9-1.08a.93.93,0,0,1,.74-.08C395.65,837.71,397.34,838.69,399.11,839.71Z"/><path class="cls-2" d="M387.91,840.26,393,843.2a.72.72,0,0,1,.32.47c0,2,0,3.92,0,6-.27-.14-.49-.24-.7-.36-1.41-.82-2.84-1.62-4.23-2.47a1,1,0,0,1-.46-.7C387.89,844.19,387.91,842.27,387.91,840.26Z"/><path class="cls-3" d="M805.81,854.85l5.89,2.89,5.66-2.89v39.37H805.81Z"/><path class="cls-3" d="M817.34,840.3v2.91c0,.9,0,1.81,0,2.71a1.07,1.07,0,0,1-.33.78c-1.66,1-3.35,2-5.09,3,0-.19,0-.31,0-.43,0-1.81,0-3.62,0-5.42a.79.79,0,0,1,.3-.59c1.62-1,3.25-1.9,4.88-2.84A1.14,1.14,0,0,1,817.34,840.3Z"/><path class="cls-3" d="M817,839.71c-1.82,1-3.54,2-5.28,3a.63.63,0,0,1-.51-.07c-1.69-.95-3.36-1.93-5.12-2.95l3.1-1.79c.63-.37,1.25-.75,1.9-1.08a.93.93,0,0,1,.74-.08C813.56,837.71,815.25,838.69,817,839.71Z"/><path class="cls-3" d="M805.81,840.26c1.76,1,3.43,2,5.09,2.94a.72.72,0,0,1,.32.47c0,2,0,3.92,0,6-.27-.14-.49-.24-.7-.36-1.41-.82-2.84-1.62-4.23-2.47a1,1,0,0,1-.46-.7C805.8,844.19,805.81,842.27,805.81,840.26Z"/><path class="cls-2" d="M351.37,869a1,1,0,0,1-.17-1.2c.12-.2.23-.41.34-.62v0c8.78-14.34,5.26-15.17,5.26-15.17-.52,1.88-3.15,6.23-4.73,8.74a106.3,106.3,0,0,1-30.89,31.71c-1.87,1.2-6.47,4.07-7.71,4.07,0,0,12.16.21,15.45-3.42,2.79-2.64,5.63-5.22,8.54-7.89a1,1,0,0,1,1.34,0c2.95,2.74,5.83,5.49,8.84,8.09a5.83,5.83,0,0,0,3.76,1.42c8.47.09,16.94.05,25.41,0,.6,0,1.2-.09,2.13-.16Z"/><path class="cls-2" d="M345.48,854.73l.09-.1s6.89-10.79,9.43-20.36h0c2.4-7.48,3.71-15.12,2.57-23.14-1.09-7.75-5-14.3-13.2-16.8-7.92-2.39-15.63-.8-23.16,1.64,2,0,3.92-.06,5.88,0,10.95.43,19.09,7.69,20.72,18.54,1.08,7.29.07,14.31-1.92,21.22h0A77.69,77.69,0,0,1,342.08,846l0,.07s0,0,0,.1a1.89,1.89,0,0,1-.1.21c-.41.93-.86,1.91-1.36,2.93a2.48,2.48,0,0,1-.13.3c-.11.21-.22.43-.32.66-.82,1.71-1.74,3.53-2.42,4.61a1,1,0,0,1-1.53.16l-.76-.79v0l-14-13.39a1,1,0,0,0-.68-.27H310.36l-.79,0a.09.09,0,0,1,0,.06H293.88a1,1,0,0,0-.67,1.69l26,24.61c.61.57,1.22,1.13,1.83,1.72l3,2.85a1,1,0,0,1,.05,1.39c-1.39,1.49-2.81,2.91-4.26,4.28l0,0a82.13,82.13,0,0,1-25.65,16.72A23.19,23.19,0,0,0,298,893c2.08-.63,4.17-1.22,6.19-2C322.3,883.73,335.34,870.82,345.48,854.73Z"/><path class="cls-2" d="M252.05,883.74v10.49H286V883.74Z"/><rect class="cls-2" x="252.07" y="836.48" width="33.92" height="10.58"/><rect class="cls-2" x="252.07" y="859.79" width="26.45" height="10.58"/><path class="cls-2" d="M458.27,894.22V836.48h11.55v47.27h23.1v10.47Z"/><path class="cls-2" d="M501.28,883.74v10.49H535.2V883.74Z"/><rect class="cls-2" x="501.3" y="836.48" width="33.92" height="10.58"/><rect class="cls-2" x="501.29" y="859.79" width="26.45" height="10.58"/><path class="cls-3" d="M908.86,894.07H897.31V835.34h2l38.44,35V835.39h11.55v59.67h-2l-38.44-35Z"/><path class="cls-3" d="M608.54,885.63a29.93,29.93,0,0,1,21.33-51.26c8.51,0,15.62,2.81,21.33,8.52s8.51,12.89,8.51,21.41-2.81,15.62-8.51,21.33a30.78,30.78,0,0,1-42.66,0Zm8.27-7.94a18.35,18.35,0,0,0,26.12,0,19.93,19.93,0,0,0,0-26.87,18.57,18.57,0,0,0-26.12,0,19.71,19.71,0,0,0,0,26.87Z"/><path class="cls-4" d="M645.59,861.57l-.34,0a2.7,2.7,0,0,0-.65.07,16.27,16.27,0,0,1,.13,2.11c0,.44,0,.88-.05,1.31a14,14,0,0,1-.25,2,14.28,14.28,0,0,1-3.86,7.48,14.64,14.64,0,0,1-20.81,0h0a14.34,14.34,0,0,1-4.16-9.43h-1c0,.36,0,.72.1,1.06a15,15,0,0,0,4.35,9.06,15.61,15.61,0,0,0,22.23,0,15.24,15.24,0,0,0,4.14-8,19.73,19.73,0,0,0,.24-2.08c0-.44.05-.87.05-1.31A19,19,0,0,0,645.59,861.57ZM615.92,860a14,14,0,0,1,1.65-4.18,14.54,14.54,0,0,1,2.19-2.78,14.51,14.51,0,0,1,24.57,7h1c-.07-.37-.16-.71-.26-1.07a15.63,15.63,0,0,0-28.47-3.39,15.13,15.13,0,0,0-1.68,4.47c0,.22-.09.45-.13.69a3,3,0,0,0,.94.36Q615.81,860.5,615.92,860Zm29.67,1.58-.34,0a2.7,2.7,0,0,0-.65.07,16.27,16.27,0,0,1,.13,2.11c0,.44,0,.88-.05,1.31a14,14,0,0,1-.25,2,14.28,14.28,0,0,1-3.86,7.48,14.64,14.64,0,0,1-20.81,0h0a14.34,14.34,0,0,1-4.16-9.43h-1c0,.36,0,.72.1,1.06a15,15,0,0,0,4.35,9.06,15.61,15.61,0,0,0,22.23,0,15.24,15.24,0,0,0,4.14-8,19.73,19.73,0,0,0,.24-2.08c0-.44.05-.87.05-1.31A19,19,0,0,0,645.59,861.57ZM615.92,860a14,14,0,0,1,1.65-4.18,14.54,14.54,0,0,1,2.19-2.78,14.51,14.51,0,0,1,24.57,7h1c-.07-.37-.16-.71-.26-1.07a15.63,15.63,0,0,0-28.47-3.39,15.13,15.13,0,0,0-1.68,4.47c0,.22-.09.45-.13.69a3,3,0,0,0,.94.36Q615.81,860.5,615.92,860Zm38.31,5a23.21,23.21,0,0,1-6.84,16A23.52,23.52,0,0,1,630.16,888a24.9,24.9,0,0,1-9.44-1.75,23.66,23.66,0,0,1-14.61-20.1c0-.35-.06-.71-.07-1.06h-1a25.66,25.66,0,0,0,1.79,8.56A25.11,25.11,0,0,0,655.21,865Zm-41.29-18.47a24.94,24.94,0,0,1,34.45-.07,22.84,22.84,0,0,1,6.45,12.41c.06.35.12.7.16,1.07h1a23.84,23.84,0,0,0-6.92-14.18,25.88,25.88,0,0,0-35.83.07,24,24,0,0,0-7,14.11h1A23,23,0,0,1,612.94,846.57Zm3,13.42a14,14,0,0,1,1.65-4.18,14.54,14.54,0,0,1,2.19-2.78,14.51,14.51,0,0,1,24.57,7h1c-.07-.37-.16-.71-.26-1.07a15.63,15.63,0,0,0-28.47-3.39,15.13,15.13,0,0,0-1.68,4.47c0,.22-.09.45-.13.69a3,3,0,0,0,.94.36Q615.81,860.5,615.92,860Zm-1.22,6.11a15,15,0,0,0,4.35,9.06,15.61,15.61,0,0,0,22.23,0,15.24,15.24,0,0,0,4.14-8,19.73,19.73,0,0,0,.24-2.08c0-.44.05-.87.05-1.31a19,19,0,0,0-.12-2.16l-.34,0a2.7,2.7,0,0,0-.65.07,16.27,16.27,0,0,1,.13,2.11c0,.44,0,.88-.05,1.31a14,14,0,0,1-.25,2,14.28,14.28,0,0,1-3.86,7.48,14.64,14.64,0,0,1-20.81,0h0a14.34,14.34,0,0,1-4.16-9.43h-1C614.62,865.4,614.65,865.76,614.7,866.1Z"/><path class="cls-4" d="M618.49,860a2.79,2.79,0,0,1-2.23,1.1,2.87,2.87,0,0,1-.52-.05,3,3,0,0,1-.94-.36A2.79,2.79,0,0,1,614,860Z"/><path class="cls-4" d="M648,864.34a2.74,2.74,0,0,1-.09.7h-5.4a2.37,2.37,0,0,1-.1-.7,2.81,2.81,0,0,1,2.15-2.72,2.7,2.7,0,0,1,.65-.07l.34,0A2.78,2.78,0,0,1,648,864.34Z"/><path class="cls-4" d="M608.68,860.62a2.79,2.79,0,0,1-.57,1.68,2.83,2.83,0,0,1-2.23,1.11,3.07,3.07,0,0,1-.53,0,2.71,2.71,0,0,1-.93-.37,2.39,2.39,0,0,1-.76-.69,2.73,2.73,0,0,1-.58-1.68,2.81,2.81,0,0,1,2.8-2.81l.35,0a3.16,3.16,0,0,1,1,.3A2.81,2.81,0,0,1,608.68,860.62Z"/><path class="cls-4" d="M657.23,864.75a2.69,2.69,0,0,1-.09.7,2.78,2.78,0,0,1-2.53,2.08h-.17a2.47,2.47,0,0,1-.82-.13,2.75,2.75,0,0,1-1.89-2,2.32,2.32,0,0,1-.09-.7,2.79,2.79,0,0,1,2.15-2.71,2.69,2.69,0,0,1,.65-.08l.34,0A2.79,2.79,0,0,1,657.23,864.75Z"/><rect class="cls-4" x="644.35" y="858.91" width="10.4" height="1.07"/><rect class="cls-4" x="605.14" y="865.04" width="10.4" height="1.07"/><path class="cls-3" d="M835.65,885.63A29.93,29.93,0,0,1,857,834.37c8.52,0,15.62,2.81,21.33,8.52s8.51,12.89,8.51,21.41-2.81,15.62-8.51,21.33a30.78,30.78,0,0,1-42.66,0Zm8.27-7.94a18.35,18.35,0,0,0,26.12,0,19.93,19.93,0,0,0,0-26.87,18.57,18.57,0,0,0-26.12,0,19.71,19.71,0,0,0,0,26.87Z"/><path class="cls-4" d="M872.71,861.57l-.35,0a2.76,2.76,0,0,0-.65.07,16.27,16.27,0,0,1,.13,2.11c0,.44,0,.88-.05,1.31a14,14,0,0,1-.25,2,14.21,14.21,0,0,1-3.86,7.48,14.64,14.64,0,0,1-20.81,0h0A14.3,14.3,0,0,1,842.7,865h-1c0,.36,0,.72.1,1.06a15.14,15.14,0,0,0,4.35,9.06,15.61,15.61,0,0,0,22.23,0,15.17,15.17,0,0,0,4.14-8,17.39,17.39,0,0,0,.25-2.08c0-.44,0-.87,0-1.31A19,19,0,0,0,872.71,861.57ZM843,860a13.71,13.71,0,0,1,1.64-4.18,15.38,15.38,0,0,1,2.19-2.78,14.51,14.51,0,0,1,24.57,7h1c-.07-.37-.16-.71-.26-1.07a15.61,15.61,0,0,0-28.46-3.39A15.14,15.14,0,0,0,842,860c0,.22-.09.45-.13.69a3,3,0,0,0,.94.36C842.9,860.68,843,860.33,843,860Zm29.67,1.58-.35,0a2.76,2.76,0,0,0-.65.07,16.27,16.27,0,0,1,.13,2.11c0,.44,0,.88-.05,1.31a14,14,0,0,1-.25,2,14.21,14.21,0,0,1-3.86,7.48,14.64,14.64,0,0,1-20.81,0h0A14.3,14.3,0,0,1,842.7,865h-1c0,.36,0,.72.1,1.06a15.14,15.14,0,0,0,4.35,9.06,15.61,15.61,0,0,0,22.23,0,15.17,15.17,0,0,0,4.14-8,17.39,17.39,0,0,0,.25-2.08c0-.44,0-.87,0-1.31A19,19,0,0,0,872.71,861.57ZM843,860a13.71,13.71,0,0,1,1.64-4.18,15.38,15.38,0,0,1,2.19-2.78,14.51,14.51,0,0,1,24.57,7h1c-.07-.37-.16-.71-.26-1.07a15.61,15.61,0,0,0-28.46-3.39A15.14,15.14,0,0,0,842,860c0,.22-.09.45-.13.69a3,3,0,0,0,.94.36C842.9,860.68,843,860.33,843,860Zm38.3,5a23.21,23.21,0,0,1-6.84,16A23.52,23.52,0,0,1,857.27,888a24.9,24.9,0,0,1-9.44-1.75,23.7,23.7,0,0,1-14.61-20.1c0-.35-.06-.71-.07-1.06h-1A25.66,25.66,0,0,0,834,873.6a24.08,24.08,0,0,0,5.42,8.1,25.07,25.07,0,0,0,43-16.66Zm-41.28-18.47a24.92,24.92,0,0,1,34.44-.07A22.71,22.71,0,0,1,881,858.91c.06.35.12.7.16,1.07h1a23.84,23.84,0,0,0-6.92-14.18,25.86,25.86,0,0,0-35.82.07,23.91,23.91,0,0,0-7,14.11h1A23,23,0,0,1,840.06,846.57ZM843,860a13.71,13.71,0,0,1,1.64-4.18,15.38,15.38,0,0,1,2.19-2.78,14.51,14.51,0,0,1,24.57,7h1c-.07-.37-.16-.71-.26-1.07a15.61,15.61,0,0,0-28.46-3.39A15.14,15.14,0,0,0,842,860c0,.22-.09.45-.13.69a3,3,0,0,0,.94.36C842.9,860.68,843,860.33,843,860Zm-1.23,6.11a15.14,15.14,0,0,0,4.35,9.06,15.61,15.61,0,0,0,22.23,0,15.17,15.17,0,0,0,4.14-8,17.39,17.39,0,0,0,.25-2.08c0-.44,0-.87,0-1.31a19,19,0,0,0-.11-2.16l-.35,0a2.76,2.76,0,0,0-.65.07,16.27,16.27,0,0,1,.13,2.11c0,.44,0,.88-.05,1.31a14,14,0,0,1-.25,2,14.21,14.21,0,0,1-3.86,7.48,14.64,14.64,0,0,1-20.81,0h0A14.3,14.3,0,0,1,842.7,865h-1C841.73,865.4,841.76,865.76,841.81,866.1Z"/><path class="cls-4" d="M845.6,860a2.79,2.79,0,0,1-2.23,1.1,2.77,2.77,0,0,1-2.22-1.1Z"/><path class="cls-4" d="M875.15,864.34a2.74,2.74,0,0,1-.09.7h-5.4a2.37,2.37,0,0,1-.1-.7,2.82,2.82,0,0,1,2.15-2.72,2.76,2.76,0,0,1,.65-.07l.35,0A2.78,2.78,0,0,1,875.15,864.34Z"/><path class="cls-4" d="M835.79,860.62a2.79,2.79,0,0,1-.57,1.68,2.82,2.82,0,0,1-2.23,1.11,3.07,3.07,0,0,1-.53,0,2.71,2.71,0,0,1-.93-.37,2.39,2.39,0,0,1-.76-.69,2.73,2.73,0,0,1-.57-1.68,2.8,2.8,0,0,1,2.79-2.81l.35,0a3.16,3.16,0,0,1,1,.3A2.81,2.81,0,0,1,835.79,860.62Z"/><path class="cls-4" d="M884.34,864.75a2.69,2.69,0,0,1-.09.7,2.78,2.78,0,0,1-2.53,2.08h-.17a2.47,2.47,0,0,1-.82-.13,2.72,2.72,0,0,1-1.88-2,2.32,2.32,0,0,1-.1-.7A2.8,2.8,0,0,1,880.9,862a2.75,2.75,0,0,1,.65-.08l.35,0A2.78,2.78,0,0,1,884.34,864.75Z"/><rect class="cls-4" x="871.47" y="858.91" width="10.4" height="1.07"/><rect class="cls-4" x="832.25" y="865.04" width="10.4" height="1.07"/><path class="cls-2" d="M329.22,306.9l55.32-1.21c17.19-.37,34.4-1.24,51.58-.84,5.19.12,12.67,2.23,15.08,6,19.82,31.07,38.69,62.74,58.61,95.47-3.6.46-5.9,1-8.21,1-34.4.79-68.79,1.7-103.19,2-3.84,0-9.38-2.46-11.32-5.55-19-30.32-37.48-61-56-91.62C330.34,311,330.12,309.57,329.22,306.9Z"/><path class="cls-3" d="M318.21,313.33c20.6,34.06,40.33,66.45,59.61,99.09,1.36,2.32.41,7.08-1.08,9.84-17.53,32.43-35.37,64.69-54,98.61-12.22-20.09-23.82-39.15-35.41-58.22-7.21-11.86-14.82-23.51-21.35-35.73-2.14-4-3.58-10.62-1.73-14.15C281.5,379.9,299.55,347.45,318.21,313.33Z"/><path class="cls-2" d="M333.34,526.18c18.51-33.83,35.94-66,53.77-97.88,1.62-2.9,5.69-6.17,8.72-6.27,37.34-1.23,74.7-1.9,113.89-2.75-2.58,5.26-4.43,9.43-6.62,13.42-14.94,27.28-29.68,54.67-45.24,81.6-2.46,4.26-8.57,8.87-13.18,9.06C408.11,524.87,371.5,525.35,333.34,526.18Z"/><path class="cls-2" d="M717.19,510.22c-10.22-16.05-20-31.35-29.73-46.66-9.24-14.51-18.09-29.3-28-43.36-3-4.25-8.9-9.29-13.37-9.2-36.84.78-73.66,2.69-111.94,4.31,1.62,3.25,2.48,5.44,3.72,7.4,18.45,29,36.8,58.13,55.67,86.9,2.1,3.21,7.25,6.44,10.9,6.33,35.78-1,71.55-2.73,107.32-4.3C713.15,511.58,714.47,511,717.19,510.22Z"/><path class="cls-3" d="M718,523c-39.77,1.8-77.65,3.39-115.51,5.5-2.68.15-6.12,3.59-7.58,6.35-17.22,32.6-34.13,65.36-52,99.71L611,631.6c13.86-.59,27.78-.74,41.57-2.1,4.51-.44,10.82-2.92,12.72-6.42C683,590.46,700,557.42,718,523Z"/><path class="cls-2" d="M532.58,628.63c17.85-34.18,34.88-66.54,51.51-99.09,1.51-3,2-8.16.37-10.74-19.73-31.72-39.93-63.15-61-96.21-2.93,5.06-5.38,8.92-7.48,13-14.37,27.58-29,55.05-42.71,82.95-2.17,4.41-2.61,12.06-.21,16C492.12,565.74,512.07,596.44,532.58,628.63Z"/><path class="cls-3" d="M706.39,282.39l-29.16-47c-9.06-14.62-17.72-29.52-27.42-43.7-2.93-4.29-8.78-9.41-13.25-9.37-36.85.33-73.69,1.78-112,2.93,1.58,3.26,2.41,5.47,3.63,7.44,18.09,29.26,36.08,58.58,54.59,87.58,2.07,3.24,7.18,6.53,10.82,6.47,35.8-.58,71.58-1.85,107.37-3C702.33,283.7,703.66,283.09,706.39,282.39Z"/><path class="cls-2" d="M707,295.13c-39.78,1.31-77.68,2.43-115.56,4.07-2.68.11-6.16,3.51-7.66,6.26-17.62,32.38-34.94,64.93-53.2,99.05,23.5-.71,45.8-1.37,68.11-2.06,13.87-.42,27.78-.4,41.59-1.58,4.52-.39,10.86-2.8,12.8-6.27C671.21,362.21,688.58,329.38,707,295.13Z"/><path class="cls-2" d="M520.32,398.51c18.27-34,35.7-66.1,52.73-98.45,1.55-2.94,2.07-8.13.5-10.73-19.33-32-39.14-63.64-59.79-97-3,5-5.49,8.86-7.65,12.87-14.71,27.4-29.63,54.69-43.72,82.41-2.24,4.39-2.77,12-.42,16C480.65,335.12,500.21,366.07,520.32,398.51Z"/><path class="cls-2" d="M864.31,397c0,111.19-54.85,209.57-139,269.55A330,330,0,0,0,835.79,419.82C835.79,237.08,687.65,89,504.93,89a329.28,329.28,0,0,0-191.88,61.3,329.55,329.55,0,0,1,220.4-84.11C716.18,66.14,864.31,214.27,864.31,397Z"/><path class="cls-2" d="M725.35,666.55a329.56,329.56,0,0,1-220.42,84.12c-182.73,0-330.87-148.13-330.87-330.85,0-111.2,54.86-209.58,139-269.57A330,330,0,0,0,202.59,397c0,182.73,148.13,330.86,330.86,330.86A329.28,329.28,0,0,0,725.35,666.55Z"/></svg>