<svg width="195" height="238" viewBox="0 0 195 238" fill="none" xmlns="http://www.w3.org/2000/svg">
<path d="M177.873 85.1609H158.635V78.8603C158.635 68.2995 167.255 59.7254 177.873 59.7254H177.873V85.1609V85.1609Z" fill="#2F2E41"/>
<path d="M173.609 73.3992L176.917 88.1971L157.534 84.9959L165.432 71.0007L173.609 73.3992Z" fill="#A0616A"/>
<path opacity="0.1" d="M173.609 73.3992L176.917 88.1971L157.534 84.9959L165.432 71.0007L173.609 73.3992Z" fill="black"/>
<path d="M155.026 132.366H173.609V105.01H155.026V132.366Z" fill="#A0616A"/>
<path d="M185.688 154.731L181.6 176.542C181.6 176.542 184.202 191.699 176.397 207.225L171.193 223.121L163.388 222.012C163.388 222.012 168.22 210.182 168.22 205.007C168.22 199.831 169.335 179.869 169.335 179.869L168.778 157.091L185.688 154.731Z" fill="#2F2E41"/>
<path d="M162.273 221.642C162.273 221.642 171.193 218.315 171.937 223.121L171.565 225.339C171.565 225.339 174.91 235.32 170.078 236.059C165.247 236.799 160.787 237.908 160.415 235.69C160.043 233.472 160.049 230.703 160.975 228.76C161.902 226.818 162.273 221.642 162.273 221.642Z" fill="#2F2E41"/>
<path d="M157.553 151.348L155.382 173.429C155.382 173.429 148.645 187.268 151.801 204.341L152.354 221.049L160.161 222.143C160.161 222.143 158.828 209.443 160.275 204.472C161.722 199.501 166.232 180.018 166.232 180.018L173.137 158.292L157.553 151.348Z" fill="#2F2E41"/>
<path d="M161.335 222.096C161.335 222.096 153.698 216.433 151.64 220.843L151.377 223.077C151.377 223.077 145.373 231.739 149.807 233.785C154.242 235.832 158.215 238.131 159.193 236.103C160.17 234.076 160.938 231.415 160.592 229.292C160.245 227.17 161.335 222.096 161.335 222.096Z" fill="#2F2E41"/>
<path d="M181.228 119.797C189.969 127.911 190.618 140.748 185.502 156.025C185.502 156.025 169.149 167.115 157.256 153.068L151.309 124.603L181.228 119.797Z" fill="#2F2E41"/>
<path d="M166.547 80.2425L175.839 81.7212L175.096 105.011L185.502 125.712L172.122 132.366C172.122 132.366 161.716 112.774 159.858 100.574C157.999 88.3753 159.114 79.5032 159.114 79.5032L166.547 80.2425Z" fill="#6C63FF"/>
<path d="M159.486 80.9818L150.194 82.4605L150.938 105.75L148.708 127.191L153.911 133.106C153.911 133.106 164.318 113.513 166.176 101.314C168.034 89.1146 166.919 80.2424 166.919 80.2424L159.486 80.9818Z" fill="#6C63FF"/>
<path d="M170.636 81.5364L172.68 80.9819C172.68 80.9819 179.927 80.0577 181.042 83.0151C182.157 85.9725 181.786 103.347 181.786 103.347C181.786 103.347 183.703 124.672 176.24 124.915C168.777 125.158 170.264 107.413 170.264 107.413L170.636 81.5364Z" fill="#6C63FF"/>
<path d="M170.366 77.4604C175.678 77.4604 179.985 73.1769 179.985 67.8929C179.985 62.6089 175.678 58.3254 170.366 58.3254C165.053 58.3254 160.747 62.6089 160.747 67.8929C160.747 73.1769 165.053 77.4604 170.366 77.4604Z" fill="#A0616A"/>
<path d="M158.371 82.2757L156.327 81.7212C156.327 81.7212 149.079 80.797 147.964 83.7544C146.849 86.7118 147.221 104.086 147.221 104.086C147.221 104.086 145.303 125.411 152.766 125.654C160.229 125.897 158.743 108.153 158.743 108.153L158.371 82.2757Z" fill="#6C63FF"/>
<path d="M164.809 81.0602C162.746 80.5394 160.406 82.7316 159.583 85.9578C159.237 87.242 159.204 88.5902 159.489 89.8894L158.602 93.5567L158.537 93.5533L151.543 109.948C149.917 113.76 150.089 118.136 152.163 121.726C153.397 123.862 155.016 125.298 156.918 123.832C160.074 121.4 162.135 107.475 163.076 99.4752L165.252 91.3439C166.126 90.3367 166.744 89.136 167.055 87.8424C167.878 84.6175 166.873 81.5809 164.809 81.0602V81.0602Z" fill="#A0616A"/>
<path d="M151.95 75.633C152.44 74.1532 153.405 72.8578 153.838 71.3605C154.411 69.3726 155.633 73.7828 155.752 71.7179C155.979 67.7932 162.001 57.6976 165.439 55.7584C168.877 53.8192 170.851 54.4039 174.354 56.2251C174.354 56.2251 176.054 56.3327 178.171 57.3721C180.288 58.4115 182.193 60.0762 183.016 62.2767C183.669 64.0209 183.597 65.9364 183.815 67.7848C184.422 72.9343 187.324 77.8317 186.701 82.9794C186.507 84.5855 185.893 86.2462 184.573 87.1909C183.253 88.1355 181.12 88.0328 180.251 86.6654C179.954 86.1988 179.829 85.6453 179.575 85.1545C179.321 84.6638 178.861 84.2063 178.307 84.2216C177.473 84.2445 177.048 85.3574 177.377 86.12C177.706 86.8825 178.479 87.3429 179.204 87.7524C177.476 88.5256 175.333 88.2849 173.822 87.1479C172.311 86.0109 171.495 84.0247 171.773 82.1606C172.165 79.5337 176.012 80.0774 176.466 77.4603C176.795 75.5551 177.954 72.3672 177.639 70.4597C177.323 68.5521 175.807 70.8618 177.404 69.7596C175.647 70.602 171.89 64.8393 170.05 64.1939C168.211 63.5484 166.652 62.1508 165.816 60.3984C163.865 63.2109 162.149 62.4472 161.451 65.7926C160.752 69.138 161.398 76.7385 164.274 78.6063C163.123 79.3875 162.206 80.5047 161.665 81.7825C161.359 82.5064 161.161 83.2985 160.653 83.8997C159.683 85.048 157.892 85.1178 156.464 84.635C154.694 84.0364 153.181 82.7215 152.346 81.0573C151.512 79.3931 151.366 77.3996 151.95 75.633L151.95 75.633Z" fill="#2F2E41"/>
<path d="M164.197 80.3209C166.261 79.8002 168.6 81.9923 169.423 85.2185C169.77 86.5028 169.802 87.8509 169.518 89.1501L170.404 92.8174L170.47 92.814L177.464 109.209C179.09 113.02 178.918 117.397 176.844 120.987C175.61 123.123 173.99 124.559 172.088 123.093C168.933 120.661 166.871 106.735 165.93 98.7359L163.754 90.6047C162.881 89.5974 162.263 88.3968 161.951 87.1032C161.128 83.8782 162.134 80.8417 164.197 80.3209V80.3209Z" fill="#A0616A"/>
<path d="M172.142 89.3047L164.318 94.8372L168.23 119.344L173.137 125.656L178.853 123.69L180.524 112.105L178.557 100.901L172.142 89.3047Z" fill="#6C63FF"/>
<path d="M153.709 56.4273H152.401V20.6861C152.401 15.1998 150.216 9.93821 146.327 6.05882C142.437 2.17943 137.162 6.92262e-06 131.661 0H55.7402C53.0166 -7.2838e-06 50.3196 0.535047 47.8033 1.57461C45.287 2.61418 43.0006 4.1379 41.0747 6.05877C39.1488 7.97965 37.6211 10.2601 36.5788 12.7698C35.5365 15.2796 35 17.9695 35 20.686V216.765C35 219.482 35.5365 222.172 36.5788 224.682C37.621 227.191 39.1488 229.472 41.0747 231.393C43.0006 233.314 45.287 234.837 47.8033 235.877C50.3196 236.916 53.0165 237.451 55.7402 237.451H131.661C137.162 237.451 142.437 235.272 146.327 231.393C150.216 227.513 152.401 222.252 152.401 216.765V81.8686H153.709L153.709 56.4273Z" fill="#3F3D56"/>
<path d="M132.498 5.38184H122.588C123.043 6.49626 123.217 7.70536 123.094 8.90263C122.971 10.0999 122.555 11.2486 121.882 12.2475C121.209 13.2465 120.299 14.065 119.235 14.6309C118.17 15.1969 116.981 15.493 115.775 15.4931H72.2806C71.0739 15.493 69.8857 15.1969 68.8208 14.631C67.7558 14.065 66.8468 13.2465 66.1737 12.2475C65.5006 11.2486 65.0842 10.0999 64.961 8.90264C64.8379 7.70536 65.0119 6.49626 65.4676 5.38184H56.2115C52.1037 5.38183 48.1641 7.0094 45.2594 9.90648C42.3547 12.8036 40.7229 16.7328 40.7229 20.8299V216.622C40.7229 218.65 41.1235 220.659 41.9019 222.533C42.6803 224.408 43.8211 226.111 45.2594 227.545C46.6976 228.98 48.4051 230.117 50.2842 230.894C52.1634 231.67 54.1775 232.07 56.2114 232.07H132.498C134.532 232.07 136.546 231.67 138.425 230.894C140.304 230.117 142.012 228.98 143.45 227.545C144.888 226.111 146.029 224.408 146.807 222.533C147.586 220.659 147.986 218.65 147.986 216.622V20.8299C147.986 18.8013 147.586 16.7924 146.807 14.9182C146.029 13.0439 144.888 11.341 143.45 9.90647C142.012 8.47198 140.304 7.33408 138.425 6.55775C136.546 5.78141 134.532 5.38183 132.498 5.38184Z" fill="white"/>
<path d="M0 237.465C0 237.709 0.196992 237.905 0.4423 237.905H194.558C194.803 237.905 195 237.709 195 237.465C195 237.221 194.803 237.025 194.558 237.025H0.4423C0.196992 237.025 0 237.221 0 237.465Z" fill="white"/>
<path d="M27.9281 37.9585C27.257 37.9585 26.7113 38.5013 26.7113 39.1688V48.851C26.7113 49.5185 27.257 50.0613 27.9281 50.0613C28.5992 50.0613 29.1449 49.5185 29.1449 48.851V39.1688C29.1449 38.5013 28.5992 37.9585 27.9281 37.9585Z" fill="#3F3D56"/>
<path d="M131.916 35.3319H101.192C99.8884 35.3319 98.8281 34.2773 98.8281 32.9811C98.8281 31.6849 99.8884 30.6304 101.192 30.6304H131.916C133.219 30.6304 134.279 31.6849 134.279 32.9811C134.279 34.2773 133.219 35.3319 131.916 35.3319Z" fill="#E6E6E6"/>
<path d="M103.092 53.8183H73.2268C72.4739 53.8183 71.8612 53.209 71.8612 52.46C71.8612 51.7111 72.4739 51.1021 73.2268 51.1021H103.092C103.845 51.1021 104.458 51.7111 104.458 52.46C104.458 53.209 103.845 53.8183 103.092 53.8183Z" fill="#50B8F6"/>
<path d="M38.1205 60.5215C51.4419 60.5215 62.241 50.0065 62.241 37.0357C62.241 24.0648 51.4419 13.5498 38.1205 13.5498C24.7991 13.5498 14 24.0648 14 37.0357C14 50.0065 24.7991 60.5215 38.1205 60.5215Z" fill="#50B8F6"/>
<path d="M46.307 25.1893C43.0958 31.0053 39.8846 36.8212 36.6734 42.6372C34.6268 39.0404 32.5914 35.4373 30.5397 31.8434C29.8312 30.6022 27.9039 31.7186 28.6142 32.9629C30.9925 37.1291 33.3462 41.3091 35.7245 45.4753C36.1312 46.1876 37.2476 46.2041 37.65 45.4753C41.1775 39.0864 44.705 32.6976 48.2325 26.3088C48.9238 25.0569 46.9988 23.9365 46.307 25.1893H46.307Z" fill="white"/>
<path d="M49.7538 61.0888C49.7538 61.3328 49.9508 61.5287 50.1961 61.5287H126.123C126.368 61.5287 126.565 61.3328 126.565 61.0888C126.565 60.8449 126.368 60.6489 126.123 60.6489H50.1961C49.9508 60.6489 49.7538 60.8449 49.7538 61.0888Z" fill="#3F3D56"/>
<path d="M118.842 95.6644H73.2768C72.5239 95.6644 71.9113 95.055 71.9113 94.3061C71.9113 93.5572 72.5239 92.9481 73.2768 92.9481H118.842C119.595 92.9481 120.207 93.5572 120.207 94.3061C120.207 95.055 119.595 95.6644 118.842 95.6644Z" fill="#50B8F6"/>
<path d="M118.842 115.257H73.2768C72.5239 115.257 71.9113 114.648 71.9113 113.899C71.9113 113.15 72.5239 112.541 73.2768 112.541H118.842C119.595 112.541 120.207 113.15 120.207 113.899C120.207 114.648 119.595 115.257 118.842 115.257Z" fill="#50B8F6"/>
<path d="M118.842 134.85H73.2768C72.5239 134.85 71.9113 134.24 71.9113 133.491C71.9113 132.743 72.5239 132.133 73.2768 132.133H118.842C119.595 132.133 120.207 132.743 120.207 133.491C120.207 134.24 119.595 134.85 118.842 134.85Z" fill="#50B8F6"/>
<path d="M59.4568 97.4655C61.3041 97.4655 62.8017 95.9759 62.8017 94.1385C62.8017 92.301 61.3041 90.8114 59.4568 90.8114C57.6094 90.8114 56.1118 92.301 56.1118 94.1385C56.1118 95.9759 57.6094 97.4655 59.4568 97.4655Z" fill="#50B8F6"/>
<path d="M59.0851 99.6835V98.9441C61.8517 98.9441 64.1025 96.7053 64.1025 93.9536C64.1025 91.2018 61.8517 88.963 59.0851 88.963V88.2236C62.2616 88.2236 64.8458 90.794 64.8458 93.9536C64.8458 97.1131 62.2616 99.6835 59.0851 99.6835Z" fill="#3F3D56"/>
<path d="M59.4568 117.058C61.3041 117.058 62.8017 115.568 62.8017 113.731C62.8017 111.894 61.3041 110.404 59.4568 110.404C57.6094 110.404 56.1118 111.894 56.1118 113.731C56.1118 115.568 57.6094 117.058 59.4568 117.058Z" fill="#50B8F6"/>
<path d="M59.0851 119.276V118.537C61.8517 118.537 64.1025 116.298 64.1025 113.546C64.1025 110.794 61.8517 108.556 59.0851 108.556V107.816C62.2616 107.816 64.8458 110.387 64.8458 113.546C64.8458 116.706 62.2616 119.276 59.0851 119.276Z" fill="#3F3D56"/>
<path d="M59.4568 136.651C61.3041 136.651 62.8017 135.161 62.8017 133.324C62.8017 131.486 61.3041 129.997 59.4568 129.997C57.6094 129.997 56.1118 131.486 56.1118 133.324C56.1118 135.161 57.6094 136.651 59.4568 136.651Z" fill="#50B8F6"/>
<path d="M59.0851 138.869V138.129C61.8517 138.129 64.1025 135.891 64.1025 133.139C64.1025 130.387 61.8517 128.148 59.0851 128.148V127.409C62.2616 127.409 64.8458 129.979 64.8458 133.139C64.8458 136.298 62.2616 138.869 59.0851 138.869Z" fill="#3F3D56"/>
</svg>
