<svg width="231" height="240" viewBox="0 0 231 240" fill="none" xmlns="http://www.w3.org/2000/svg">
<g clip-path="url(#clip0_73_7)">
<path d="M166.348 56.8841H165.05V20.8534C165.05 15.3228 162.878 10.0186 159.013 6.10783C155.148 2.19705 149.906 2.72022e-09 144.44 2.72022e-09H68.9962C66.2897 -4.42278e-05 63.6097 0.539302 61.1092 1.58724C58.6088 2.63519 56.3368 4.1712 54.423 6.10759C52.5092 8.04398 50.9911 10.3428 49.9553 12.8729C48.9196 15.4029 48.3865 18.1146 48.3864 20.8531V218.52C48.3864 224.051 50.5578 229.355 54.4228 233.266C58.2878 237.176 63.5299 239.374 68.9958 239.374H144.439C149.905 239.374 155.147 237.176 159.012 233.266C162.877 229.355 165.049 224.051 165.049 218.52V82.5313H166.347L166.348 56.8841Z" fill="#3F3D56"/>
<path d="M160.822 19.4566V219.916C160.822 224.109 159.175 228.131 156.245 231.096C153.315 234.062 149.341 235.728 145.197 235.73H68.2049C64.0591 235.731 60.0828 234.065 57.1506 231.099C54.2184 228.134 52.5704 224.111 52.5692 219.916V19.4566C52.5704 15.2619 54.2183 11.2394 57.1504 8.27384C60.0824 5.30832 64.0586 3.64265 68.2043 3.64319H77.5438C77.0852 4.78429 76.9107 6.0219 77.0355 7.24725C77.1603 8.47259 77.5807 9.64815 78.2597 10.6706C78.9387 11.693 79.8556 12.5311 80.9296 13.111C82.0037 13.691 83.2021 13.9951 84.4195 13.9967H128.314C129.531 13.9951 130.73 13.691 131.804 13.111C132.878 12.5311 133.795 11.693 134.474 10.6706C135.153 9.64815 135.573 8.47259 135.698 7.24725C135.823 6.0219 135.648 4.78429 135.19 3.64319H145.194C149.338 3.6439 153.312 5.30977 156.243 8.27456C159.174 11.2393 160.821 15.2604 160.822 19.4536V19.4566Z" fill="white"/>
<path d="M141.738 134.924H73.3214C72.9855 134.923 72.6635 134.788 72.426 134.548C72.1885 134.308 72.0549 133.982 72.0545 133.642V116.47C72.0549 116.13 72.1886 115.804 72.4261 115.564C72.6635 115.324 72.9855 115.189 73.3214 115.188H141.738C142.074 115.189 142.396 115.324 142.633 115.564C142.87 115.804 143.004 116.13 143.005 116.47V133.642C143.004 133.982 142.87 134.308 142.633 134.548C142.396 134.788 142.074 134.924 141.738 134.924V134.924ZM73.3214 115.701C73.1198 115.701 72.9265 115.782 72.784 115.926C72.6415 116.071 72.5613 116.266 72.5611 116.47V133.642C72.5613 133.846 72.6415 134.042 72.784 134.186C72.9265 134.33 73.1198 134.411 73.3214 134.412H141.738C141.939 134.411 142.133 134.33 142.275 134.186C142.418 134.042 142.498 133.846 142.498 133.642V116.47C142.498 116.266 142.418 116.071 142.275 115.926C142.133 115.782 141.939 115.701 141.738 115.701H73.3214Z" fill="#E6E6E6"/>
<path d="M94.48 121.372C94.2448 121.372 94.0192 121.467 93.8529 121.635C93.6865 121.803 93.5931 122.032 93.5931 122.27C93.5931 122.508 93.6865 122.736 93.8529 122.904C94.0192 123.073 94.2448 123.167 94.48 123.167H136.29C136.525 123.176 136.754 123.091 136.926 122.929C137.099 122.767 137.201 122.542 137.21 122.305C137.219 122.067 137.134 121.835 136.974 121.66C136.815 121.486 136.593 121.382 136.358 121.373C136.345 121.373 136.332 121.373 136.319 121.373H94.48V121.372Z" fill="#E6E6E6"/>
<path d="M94.48 126.756C94.2448 126.756 94.0192 126.85 93.8529 127.019C93.6865 127.187 93.5931 127.415 93.5931 127.653C93.5931 127.891 93.6865 128.12 93.8529 128.288C94.0192 128.456 94.2448 128.551 94.48 128.551H136.29C136.525 128.56 136.754 128.474 136.926 128.312C137.099 128.151 137.201 127.926 137.21 127.688C137.219 127.45 137.134 127.218 136.974 127.044C136.815 126.869 136.593 126.766 136.358 126.757C136.345 126.756 136.332 126.756 136.319 126.756H94.48V126.756Z" fill="#E6E6E6"/>
<path d="M141.738 163.546H73.3214C72.9855 163.545 72.6635 163.41 72.426 163.17C72.1885 162.929 72.0549 162.604 72.0545 162.264V145.092C72.0549 144.752 72.1886 144.426 72.4261 144.186C72.6635 143.946 72.9855 143.811 73.3214 143.81H141.738C142.074 143.811 142.396 143.946 142.633 144.186C142.87 144.426 143.004 144.752 143.005 145.092V162.264C143.004 162.604 142.87 162.93 142.633 163.17C142.395 163.41 142.073 163.545 141.738 163.546ZM73.3214 144.323C73.1198 144.323 72.9265 144.404 72.784 144.548C72.6415 144.692 72.5613 144.888 72.5611 145.092V162.264C72.5613 162.468 72.6415 162.664 72.784 162.808C72.9265 162.952 73.1198 163.033 73.3214 163.033H141.738C141.939 163.033 142.133 162.952 142.275 162.808C142.418 162.664 142.498 162.468 142.498 162.264V145.092C142.498 144.888 142.418 144.692 142.275 144.548C142.133 144.404 141.939 144.323 141.738 144.323H73.3214Z" fill="#E6E6E6"/>
<path d="M94.48 150.087C94.2448 150.087 94.0192 150.182 93.8529 150.35C93.6865 150.518 93.5931 150.747 93.5931 150.985C93.5931 151.223 93.6865 151.451 93.8529 151.619C94.0192 151.787 94.2448 151.882 94.48 151.882H136.29C136.522 151.881 136.744 151.788 136.909 151.623C137.073 151.457 137.168 151.234 137.172 150.999C137.175 150.764 137.088 150.538 136.929 150.367C136.769 150.197 136.55 150.096 136.319 150.088H94.48V150.087Z" fill="#E6E6E6"/>
<path d="M94.48 155.472C94.2448 155.472 94.0192 155.567 93.8529 155.735C93.6865 155.903 93.5931 156.131 93.5931 156.369C93.5931 156.607 93.6865 156.836 93.8529 157.004C94.0192 157.172 94.2448 157.267 94.48 157.267H136.29C136.522 157.266 136.744 157.172 136.909 157.007C137.073 156.842 137.168 156.619 137.172 156.384C137.175 156.149 137.088 155.923 136.929 155.752C136.769 155.582 136.55 155.481 136.319 155.472H94.48V155.472Z" fill="#E6E6E6"/>
<path d="M141.738 192.261H73.3214C72.9855 192.261 72.6635 192.126 72.426 191.885C72.1885 191.645 72.0549 191.319 72.0545 190.979V173.808C72.0549 173.468 72.1886 173.142 72.4261 172.902C72.6635 172.661 72.9855 172.526 73.3214 172.526H141.738C142.074 172.526 142.396 172.661 142.633 172.902C142.87 173.142 143.004 173.468 143.005 173.808V190.98C143.004 191.32 142.87 191.645 142.633 191.886C142.396 192.126 142.074 192.261 141.738 192.262V192.261ZM73.3214 173.038C73.1198 173.038 72.9265 173.12 72.784 173.264C72.6415 173.408 72.5613 173.604 72.5611 173.808V190.98C72.5613 191.184 72.6415 191.379 72.784 191.523C72.9265 191.668 73.1198 191.749 73.3214 191.749H141.738C141.939 191.749 142.133 191.668 142.275 191.523C142.418 191.379 142.498 191.184 142.498 190.98V173.808C142.498 173.604 142.418 173.408 142.275 173.264C142.133 173.12 141.939 173.038 141.738 173.038H73.3214Z" fill="#E6E6E6"/>
<path d="M94.48 178.804C94.2448 178.804 94.0192 178.898 93.8529 179.067C93.6865 179.235 93.5931 179.463 93.5931 179.701C93.5931 179.939 93.6865 180.167 93.8529 180.336C94.0192 180.504 94.2448 180.599 94.48 180.599H136.29C136.406 180.603 136.522 180.584 136.631 180.543C136.741 180.503 136.841 180.44 136.926 180.36C137.012 180.28 137.081 180.184 137.13 180.077C137.178 179.97 137.206 179.854 137.21 179.736C137.215 179.618 137.196 179.501 137.156 179.39C137.115 179.28 137.054 179.178 136.974 179.092C136.895 179.005 136.8 178.935 136.694 178.886C136.588 178.837 136.474 178.809 136.358 178.805C136.345 178.804 136.332 178.804 136.319 178.804H94.48V178.804Z" fill="#E6E6E6"/>
<path d="M94.48 184.188C94.2448 184.188 94.0192 184.283 93.8529 184.451C93.6865 184.619 93.5931 184.848 93.5931 185.086C93.5931 185.324 93.6865 185.552 93.8529 185.72C94.0192 185.889 94.2448 185.983 94.48 185.983H136.29C136.406 185.988 136.522 185.969 136.631 185.928C136.741 185.887 136.841 185.825 136.926 185.745C137.012 185.665 137.081 185.568 137.13 185.461C137.178 185.354 137.206 185.238 137.21 185.121C137.215 185.003 137.196 184.885 137.156 184.775C137.115 184.664 137.054 184.563 136.974 184.476C136.895 184.39 136.8 184.32 136.694 184.271C136.588 184.221 136.474 184.194 136.358 184.189C136.345 184.189 136.332 184.189 136.319 184.189H94.48V184.188Z" fill="#E6E6E6"/>
<path d="M230.396 240H0.603152C0.270286 240 0 239.842 0 239.648C0 239.454 0.270286 239.296 0.603152 239.296H230.397C230.73 239.296 231 239.454 231 239.648C231 239.842 230.729 240 230.396 240Z" fill="#E6E6E6"/>
<path d="M9.67709 226.27C10.7274 226.644 11.8551 226.737 12.9515 226.542C14.0479 226.347 15.0761 225.869 15.937 225.154C18.1296 223.293 18.8169 220.225 19.3761 217.384L21.0305 208.983L17.567 211.396C15.0762 213.131 12.5294 214.922 10.8045 217.436C9.07959 219.949 8.32698 223.381 9.7127 226.101" fill="#E6E6E6"/>
<path d="M10.212 237.027C9.77594 233.813 9.32757 230.558 9.63347 227.31C9.90509 224.425 10.7749 221.608 12.5457 219.297C13.4856 218.074 14.6293 217.025 15.9253 216.199C16.2632 215.983 16.5744 216.525 16.2379 216.74C13.9949 218.174 12.2599 220.291 11.2832 222.787C10.2047 225.563 10.0316 228.588 10.218 231.537C10.3305 233.32 10.5685 235.091 10.8085 236.86C10.8274 236.94 10.8155 237.025 10.7754 237.096C10.7352 237.168 10.6697 237.221 10.5921 237.246C10.513 237.267 10.4286 237.256 10.3573 237.215C10.286 237.174 10.2336 237.106 10.2113 237.027H10.212Z" fill="#F2F2F2"/>
<path d="M13.3499 231.871C13.8004 232.563 14.4195 233.127 15.1478 233.507C15.876 233.888 16.6888 234.072 17.5077 234.042C19.6125 233.941 21.3673 232.455 22.9468 231.044L27.6189 226.871L24.5269 226.721C22.3033 226.613 20.0222 226.513 17.9029 227.207C15.7835 227.901 13.8316 229.571 13.4444 231.787" fill="#E6E6E6"/>
<path d="M8.97971 238.874C11.0768 235.117 13.5127 230.941 17.8622 229.606C19.0716 229.236 20.3398 229.104 21.5983 229.216C21.9951 229.249 21.8959 229.869 21.4985 229.835C19.3888 229.657 17.2832 230.221 15.5362 231.431C13.8549 232.589 12.546 234.198 11.4383 235.905C10.7595 236.95 10.1517 238.041 9.54392 239.13C9.35019 239.477 8.78431 239.226 8.97971 238.874Z" fill="#F2F2F2"/>
<path d="M81.8567 130.335C84.7955 130.335 87.1779 127.924 87.1779 124.951C87.1779 121.977 84.7955 119.566 81.8567 119.566C78.9179 119.566 76.5355 121.977 76.5355 124.951C76.5355 127.924 78.9179 130.335 81.8567 130.335Z" fill="#50B8F6"/>
<path d="M79.3093 123.945C79.248 123.945 79.1984 124.347 79.1984 124.842C79.1984 125.338 79.248 125.74 79.3093 125.74H84.5416C84.6028 125.748 84.6534 125.353 84.6544 124.857C84.6884 124.549 84.651 124.237 84.5453 123.945H79.3093V123.945Z" fill="#E6E6E6"/>
<path d="M81.8567 159.062C84.7955 159.062 87.1779 156.652 87.1779 153.678C87.1779 150.704 84.7955 148.294 81.8567 148.294C78.9179 148.294 76.5355 150.704 76.5355 153.678C76.5355 156.652 78.9179 159.062 81.8567 159.062Z" fill="#50B8F6"/>
<path d="M79.3093 152.672C79.248 152.672 79.1984 153.074 79.1984 153.569C79.1984 154.065 79.248 154.467 79.3093 154.467H84.5416C84.6028 154.475 84.6534 154.08 84.6544 153.585C84.6884 153.276 84.651 152.964 84.5453 152.673H79.3093V152.672Z" fill="#E6E6E6"/>
<path d="M81.8567 187.778C84.7955 187.778 87.1779 185.367 87.1779 182.393C87.1779 179.42 84.7955 177.009 81.8567 177.009C78.9179 177.009 76.5355 179.42 76.5355 182.393C76.5355 185.367 78.9179 187.778 81.8567 187.778Z" fill="#50B8F6"/>
<path d="M79.3093 181.388C79.248 181.388 79.1984 181.79 79.1984 182.285C79.1984 182.78 79.248 183.183 79.3093 183.183H84.5416C84.6028 183.191 84.6534 182.796 84.6544 182.3C84.6884 181.992 84.651 181.679 84.5453 181.388H79.3093V181.388Z" fill="#E6E6E6"/>
<path d="M123.888 86.4478C123.612 86.4487 123.341 86.3721 123.105 86.2265C122.869 86.0808 122.678 85.8718 122.553 85.6227C121.485 83.5111 120.012 81.6364 118.218 80.1089C116.425 78.5813 114.348 77.4316 112.11 76.7273C111.193 76.4459 110.258 76.2316 109.311 76.0861L109.118 76.0564L119.077 44.5493L119.246 44.5552C138.595 49.8751 149.665 65.5657 152.597 70.248C152.709 70.427 152.782 70.6277 152.812 70.8372C152.843 71.0467 152.829 71.2603 152.773 71.4641C152.716 71.668 152.618 71.8577 152.485 72.0209C152.352 72.184 152.186 72.3171 151.999 72.4114L124.56 86.287C124.352 86.3928 124.122 86.4478 123.888 86.4478Z" fill="#E6E6E6"/>
<path d="M183.617 153.582C183.72 153.137 183.919 152.721 184.199 152.363C184.479 152.004 184.833 151.712 185.236 151.508C185.639 151.303 186.082 151.19 186.534 151.177C186.985 151.163 187.433 151.251 187.848 151.432L195.265 143.25L196.651 148.846L189.394 155.758C189.047 156.442 188.464 156.974 187.756 157.252C187.047 157.53 186.262 157.536 185.55 157.268C184.837 156.999 184.247 156.476 183.891 155.796C183.534 155.117 183.437 154.329 183.616 153.582L183.617 153.582Z" fill="#FEB8B8"/>
<path d="M199.547 235.203H195.016L192.859 217.515H199.55L199.547 235.203Z" fill="#FEB8B8"/>
<path d="M200.703 233.706H191.777C190.269 233.706 188.822 234.312 187.755 235.391C186.689 236.471 186.089 237.935 186.089 239.461V239.648H200.702L200.703 233.706Z" fill="#2F2E41"/>
<path d="M225.573 230.66L221.336 232.288L213.117 216.525L219.37 214.124L225.573 230.66Z" fill="#FEB8B8"/>
<path d="M226.13 228.845L217.785 232.05C216.375 232.592 215.235 233.678 214.616 235.07C213.998 236.462 213.951 238.046 214.486 239.473L214.552 239.648L228.215 234.401L226.13 228.845Z" fill="#2F2E41"/>
<path d="M210.655 176.368L214.41 196.817C214.41 196.817 224.604 225.59 223.889 226.314C223.174 227.038 213.337 229.571 213.874 227.943C214.41 226.314 202.07 201.884 202.07 201.884L210.655 176.368Z" fill="#2F2E41"/>
<path d="M195.424 139.208C195.424 139.208 187.842 149.236 188.836 149.784C189.829 150.332 193.678 153.232 193.678 153.232L197.594 142.358L195.424 139.208Z" fill="#E4E4E4"/>
<path d="M193.307 149.33C193.307 149.33 192.055 158.74 192.591 160.731C193.128 162.721 192.77 219.181 192.413 220.086C192.055 220.991 190.981 224.067 191.518 225.515C192.056 226.962 199.387 230.582 200.461 229.315C201.534 228.048 209.403 181.903 209.403 181.903C209.403 181.903 220.492 154.035 217.988 151.321C215.484 148.607 193.307 149.33 193.307 149.33Z" fill="#2F2E41"/>
<path d="M209.397 88.8531C214.236 88.8531 218.16 84.8831 218.16 79.9859C218.16 75.0887 214.236 71.1188 209.397 71.1188C204.557 71.1188 200.633 75.0887 200.633 79.9859C200.633 84.8831 204.557 88.8531 209.397 88.8531Z" fill="#FEB8B8"/>
<path d="M200.239 100.026C200.46 98.5904 201.166 97.2764 202.237 96.3078L203.834 91.3651H213.224L215.841 95.5196C218.67 96.7527 220.767 98.7082 220.847 101.013C221.28 102.544 219.416 151.14 218.88 152.949C218.722 153.476 216.583 153.757 213.575 153.883C210.817 153.997 207.332 153.98 203.986 153.903C198.445 153.772 193.28 153.472 192.411 153.311C190.445 152.949 200.045 101.168 200.239 100.026Z" fill="#E4E4E4"/>
<path d="M208.541 164.467C208.922 164.222 209.244 163.894 209.486 163.509C209.728 163.123 209.883 162.689 209.941 162.236C209.999 161.783 209.958 161.322 209.821 160.887C209.685 160.452 209.455 160.052 209.149 159.716L214.331 149.93L208.653 150.455L204.603 159.667C204.079 160.225 203.775 160.957 203.75 161.726C203.724 162.495 203.978 163.247 204.464 163.838C204.95 164.43 205.633 164.821 206.385 164.937C207.136 165.053 207.904 164.886 208.541 164.467L208.541 164.467Z" fill="#FEB8B8"/>
<path d="M209.403 94.6799C209.403 94.6799 201.176 98.118 204.216 106.805C207.257 115.492 210.655 125.806 210.655 125.806C210.655 125.806 206.362 149.15 206.362 150.056C206.362 150.962 203.68 155.847 204.753 156.752C205.825 157.657 212.979 159.466 213.158 158.562C213.706 156.477 214.363 154.423 215.125 152.409C215.483 151.685 223.889 129.065 222.814 127.074C222.025 125.609 221.332 112.187 221.021 105.202C220.949 103.209 220.366 101.269 219.328 99.5731C218.29 97.8773 216.834 96.4841 215.102 95.5307C213.437 94.6341 211.495 94.1505 209.403 94.6799Z" fill="#E4E4E4"/>
<path d="M212.77 83.949C212.104 83.6385 211.333 83.5741 210.613 83.3811C208.039 82.69 206.314 80.1178 206.865 77.7901C206.966 77.4941 207.012 77.1816 207 76.8686C206.903 76.1792 206.105 75.7343 205.34 75.5763C204.575 75.4183 203.76 75.4416 203.029 75.1873C202.5 74.9975 202.031 74.667 201.671 74.2304C201.312 73.7939 201.075 73.2674 200.986 72.7064C200.873 71.6163 201.148 70.521 201.761 69.6175L202.038 70.3207C202.448 70.0207 202.762 69.6056 202.941 69.1268C203.241 69.1632 203.528 69.2743 203.775 69.4501C204.023 69.626 204.223 69.8611 204.359 70.1345C204.803 70.3659 204.867 69.4161 205.358 69.276C205.571 69.252 205.786 69.2993 205.969 69.4107C206.957 69.8179 208.104 69.4696 209.165 69.244C211.006 68.855 212.906 68.8531 214.747 69.2383C215.967 69.4952 217.174 69.9432 218.047 70.7387C218.716 71.4036 219.242 72.2018 219.59 73.0829C220.526 75.165 221.144 77.418 220.835 79.6416C220.554 81.5074 219.686 83.2318 218.36 84.5589C217.653 85.2787 215.348 87.7893 214.083 87.3615C212.493 86.8226 214.641 84.8237 212.77 83.949Z" fill="#2F2E41"/>
<path d="M107.176 92.4401C108.646 92.4401 109.839 91.2337 109.839 89.7456C109.839 88.2575 108.646 87.0511 107.176 87.0511C105.705 87.0511 104.513 88.2575 104.513 89.7456C104.513 91.2337 105.705 92.4401 107.176 92.4401Z" fill="#3F3D56"/>
<path d="M89.305 86.4085C89.0612 86.4082 88.8213 86.3476 88.606 86.2319L61.3266 71.6702C61.1457 71.5736 60.9862 71.4406 60.858 71.2792C60.7298 71.1178 60.6357 70.9316 60.5814 70.732C60.5271 70.5324 60.5138 70.3237 60.5422 70.1187C60.5707 69.9137 60.6404 69.7167 60.747 69.54C64.3909 63.6302 69.0054 58.3934 74.3915 54.0553C83.8122 46.5005 94.5279 42.7102 106.239 42.7739C110.632 42.7935 115.003 43.3923 119.243 44.5551L119.411 44.6011L109.449 76.1065L109.309 76.0851C108.411 75.9481 107.507 75.8669 106.6 75.842C96.4636 75.5526 92.0712 82.5364 90.6528 85.552C90.5673 85.7349 90.4459 85.8983 90.296 86.0321C90.146 86.1658 89.9706 86.2673 89.7806 86.3301C89.6273 86.3819 89.4667 86.4084 89.305 86.4085Z" fill="#45D1FD" fill-opacity="0.85"/>
<path d="M119.202 44.7178L112.159 76.5663C111.234 76.2824 110.291 76.0663 109.336 75.9196L119.199 44.7178H119.202Z" fill="#3F3D56"/>
</g>
<defs>
<clipPath id="clip0_73_7">
<rect width="231" height="240" fill="white"/>
</clipPath>
</defs>
</svg>
