<svg width="316" height="239" viewBox="0 0 316 239" fill="none" xmlns="http://www.w3.org/2000/svg">
<g clip-path="url(#clip0_85_102)">
<path d="M237.817 57.2016H236.509V21.4604C236.509 15.9741 234.324 10.7125 230.434 6.83311C226.544 2.95372 221.269 0.774299 215.769 0.774292H139.848C137.124 0.774285 134.427 1.30934 131.911 2.34891C129.394 3.38847 127.108 4.91219 125.182 6.83306C123.256 8.75394 121.728 11.0343 120.686 13.5441C119.644 16.0538 119.107 18.7438 119.107 21.4603V217.54C119.107 220.256 119.644 222.946 120.686 225.456C121.728 227.966 123.256 230.246 125.182 232.167C127.108 234.088 129.394 235.612 131.911 236.651C134.427 237.691 137.124 238.226 139.848 238.226H215.768C221.269 238.226 226.544 236.046 230.434 232.167C234.323 228.288 236.509 223.026 236.509 217.54V82.6429H237.817L237.817 57.2016Z" fill="#3F3D56"/>
<path d="M216.605 6.15613H206.695C207.151 7.27055 207.325 8.47965 207.202 9.67692C207.079 10.8742 206.662 12.0229 205.989 13.0218C205.316 14.0208 204.407 14.8393 203.342 15.4052C202.277 15.9712 201.089 16.2673 199.882 16.2674H156.388C155.181 16.2673 153.993 15.9712 152.928 15.4052C151.863 14.8393 150.954 14.0208 150.281 13.0218C149.608 12.0229 149.192 10.8742 149.068 9.67693C148.945 8.47965 149.119 7.27055 149.575 6.15613H140.319C136.211 6.15613 132.271 7.78369 129.367 10.6808C126.462 13.5778 124.83 17.5071 124.83 21.6042V217.396C124.83 219.425 125.231 221.433 126.009 223.308C126.788 225.182 127.929 226.885 129.367 228.319C130.805 229.754 132.512 230.892 134.392 231.668C136.271 232.444 138.285 232.844 140.319 232.844H216.605C218.639 232.844 220.653 232.444 222.533 231.668C224.412 230.892 226.119 229.754 227.557 228.319C228.996 226.885 230.137 225.182 230.915 223.308C231.693 221.433 232.094 219.425 232.094 217.396V21.6042C232.094 19.5755 231.693 17.5667 230.915 15.6925C230.137 13.8182 228.996 12.1152 227.557 10.6808C226.119 9.24627 224.412 8.10838 222.533 7.33204C220.653 6.5557 218.639 6.15613 216.605 6.15613Z" fill="white"/>
<path d="M194.264 91.0555C201.852 91.0555 208.004 90.4712 208.004 89.7504C208.004 89.0296 201.852 88.4453 194.264 88.4453C186.677 88.4453 180.525 89.0296 180.525 89.7504C180.525 90.4712 186.677 91.0555 194.264 91.0555Z" fill="#E6E6E6"/>
<path d="M316 33.3582H189.517V74.7718H194.308V85.6033L205.168 74.7718H316V33.3582Z" fill="#50B8F6"/>
<path d="M261.11 47.3823H203.595V49.1232H261.11V47.3823Z" fill="white"/>
<path d="M303.839 53.4047H203.595V55.1455H303.839V53.4047Z" fill="white"/>
<path d="M303.741 59.4269H203.595V61.1678H303.741V59.4269Z" fill="white"/>
<path d="M283.687 158.267H182.724V191.325H186.549V199.971L195.217 191.325H283.687V158.267Z" fill="#50B8F6"/>
<path d="M239.872 169.462H193.961V170.851H239.872V169.462Z" fill="white"/>
<path d="M273.979 174.269H193.961V175.658H273.979V174.269Z" fill="white"/>
<path d="M273.901 179.076H193.961V180.466H273.901V179.076Z" fill="white"/>
<path d="M186.513 204.323C192.57 204.323 197.481 203.857 197.481 203.281C197.481 202.706 192.57 202.24 186.513 202.24C180.456 202.24 175.546 202.706 175.546 203.281C175.546 203.857 180.456 204.323 186.513 204.323Z" fill="#E6E6E6"/>
<path d="M156.318 139.343C163.906 139.343 170.057 138.759 170.057 138.038C170.057 137.317 163.906 136.733 156.318 136.733C148.73 136.733 142.579 137.317 142.579 138.038C142.579 138.759 148.73 139.343 156.318 139.343Z" fill="#E6E6E6"/>
<path d="M72.1093 98.2942H161.056V127.418H157.687V135.035L150.05 127.418H72.1093V98.2942Z" fill="#50B8F6"/>
<path d="M121.782 107.933H81.3353V109.157H121.782V107.933Z" fill="white"/>
<path d="M151.83 112.168H81.3353V113.392H151.83V112.168Z" fill="white"/>
<path d="M151.761 116.403H81.3353V117.627H151.761V116.403Z" fill="white"/>
<path d="M28.7816 169.334C29.208 170.067 29.9088 170.6 30.7297 170.818C31.5505 171.035 32.4242 170.918 33.1586 170.492C33.893 170.067 34.4279 169.368 34.6456 168.549C34.8633 167.731 34.746 166.859 34.3195 166.127C34.23 165.977 34.1292 165.834 34.0179 165.7L36.7116 146.551L36.7922 145.978L37.3394 142.07L37.42 141.507L37.1219 141.521L31.9031 141.759L30.5037 141.822L30.3283 145.387L29.3357 165.427C28.8172 165.922 28.4805 166.576 28.38 167.285C28.2795 167.994 28.4209 168.716 28.7816 169.334Z" fill="#A0616A"/>
<path d="M36.7767 146.152L30.1499 145.546C29.8062 145.513 29.4893 145.347 29.2683 145.082C29.0472 144.818 28.94 144.477 28.97 144.134L30.1992 130.389C30.2587 129.721 30.452 129.072 30.7674 128.481C31.0829 127.889 31.5141 127.366 32.0357 126.943C32.5572 126.521 33.1585 126.207 33.8038 126.02C34.4492 125.833 35.1256 125.778 35.7929 125.856C36.4603 125.935 37.105 126.146 37.6891 126.478C38.2731 126.809 38.7845 127.254 39.1931 127.786C39.6016 128.318 39.899 128.927 40.0676 129.575C40.2363 130.224 40.2727 130.9 40.1748 131.563L38.1877 145.045C38.1421 145.354 37.9867 145.636 37.7499 145.84C37.5131 146.045 37.2107 146.157 36.8976 146.158C36.8576 146.158 36.8172 146.156 36.7767 146.152Z" fill="#CCCCCC"/>
<path d="M31.7546 135.047C31.0843 133.154 31.0532 131.093 31.6661 129.181C32.2789 127.268 33.5021 125.607 35.1491 124.452C37.648 122.747 41.0675 122.135 44.7501 126.507C52.1153 135.253 54.0443 144.872 54.0443 144.872L38.9632 147.321C38.9632 147.321 33.8339 141.068 31.7546 135.047Z" fill="#CCCCCC"/>
<path d="M56.1457 233.556H60.4454L62.4909 217.014L56.1451 217.014L56.1457 233.556Z" fill="#A0616A"/>
<path d="M68.7381 237.537L55.2245 237.538L55.2242 232.33L64.568 232.33C65.1156 232.33 65.6578 232.438 66.1638 232.647C66.6697 232.855 67.1294 233.162 67.5166 233.548C67.9038 233.934 68.211 234.393 68.4206 234.897C68.6302 235.402 68.7381 235.943 68.7381 236.489L68.7381 237.537Z" fill="#2F2E41"/>
<path d="M20.7949 229.816L24.8774 231.161L32.025 216.096L25.9997 214.11L20.7949 229.816Z" fill="#A0616A"/>
<path d="M31.4979 237.538L18.6669 233.308L20.3055 228.364L29.1772 231.288C29.6971 231.46 30.1781 231.732 30.5927 232.088C31.0073 232.445 31.3474 232.88 31.5935 233.368C31.8396 233.856 31.987 234.387 32.0272 234.932C32.0674 235.477 31.9996 236.024 31.8278 236.542L31.4979 237.538Z" fill="#2F2E41"/>
<path d="M45.3527 119.062C49.5271 116.786 51.0613 111.566 48.7793 107.402C46.4974 103.239 41.2634 101.709 37.0889 103.985C32.9145 106.261 31.3803 111.481 33.6623 115.645C35.9442 119.808 41.1782 121.338 45.3527 119.062Z" fill="#A0616A"/>
<path d="M48.7631 228.951L44.7699 202.664C44.7273 202.384 44.5883 202.127 44.3767 201.937C44.1651 201.747 43.894 201.637 43.6098 201.624C43.3256 201.612 43.0459 201.699 42.8185 201.869C42.5911 202.04 42.4302 202.284 42.3632 202.559L36.2824 227.61C36.1866 227.994 35.9504 228.328 35.6203 228.547C35.2902 228.766 34.8899 228.854 34.4979 228.794L17.7246 226.105C17.5022 226.07 17.29 225.987 17.1023 225.863C16.9146 225.738 16.7557 225.576 16.6364 225.385C16.517 225.195 16.4399 224.981 16.4103 224.758C16.3807 224.535 16.3992 224.309 16.4646 224.094L38.336 152.175C38.3982 151.97 38.4056 151.753 38.3574 151.544L37.6292 148.397C37.5492 148.056 37.5861 147.698 37.734 147.38C37.8819 147.062 38.1323 146.803 38.4452 146.643C41.4235 145.128 48.9652 141.977 54.6596 145.428C54.8444 145.541 55.0044 145.689 55.1298 145.865C55.2551 146.041 55.3433 146.241 55.3889 146.452L72.4748 226.546C72.5213 226.764 72.5209 226.989 72.4737 227.207C72.4265 227.424 72.3335 227.63 72.2009 227.809C72.0683 227.988 71.8992 228.137 71.7045 228.246C71.5099 228.355 71.2943 228.422 71.0719 228.442L50.4644 230.282C50.4169 230.287 50.3697 230.289 50.3229 230.289C49.9456 230.288 49.581 230.153 49.295 229.907C49.0089 229.662 48.8203 229.323 48.7631 228.951Z" fill="#2F2E41"/>
<path d="M35.5088 105.453C36.1582 105.064 36.7345 104.564 37.2117 103.977C37.4471 103.681 37.602 103.329 37.6616 102.955C37.7211 102.582 37.6833 102.199 37.5518 101.844C37.1166 100.887 35.8233 100.583 34.8212 100.91C33.8192 101.236 33.045 102.019 32.3126 102.776C31.6675 103.442 31.0039 104.137 30.6979 105.011C30.3919 105.886 30.5491 106.994 31.3102 107.525C32.0572 108.045 33.1311 107.832 33.8495 107.273C34.5679 106.714 35.0126 105.884 35.4366 105.08L35.5088 105.453Z" fill="#2F2E41"/>
<path d="M32.5914 103.005C32.5436 100.584 29.777 98.8486 27.3878 99.2775C24.9985 99.7065 23.1619 101.738 22.2426 103.979C20.3003 108.714 21.7584 114.117 23.6299 118.88C25.5015 123.643 27.8175 128.478 27.5445 133.587C27.36 136.348 26.4311 139.009 24.856 141.287C23.2809 143.566 21.118 145.377 18.5958 146.531C21.2923 147.75 24.5155 146.491 26.7814 144.59C31.8136 140.37 33.756 132.856 31.3972 126.735C30.2338 123.716 28.1835 121.133 26.5829 118.32C24.9822 115.507 23.8077 112.192 24.6342 109.064C25.4606 105.936 28.9775 103.403 31.9844 104.615L32.5914 103.005Z" fill="#2F2E41"/>
<path d="M41.7374 115.336C40.9865 114.07 40.2284 112.409 41.6013 111.302C41.8998 111.073 42.2412 110.905 42.6057 110.809C42.9701 110.713 43.3501 110.69 43.7233 110.743C45.2709 110.929 46.956 111.005 48.4538 110.445C49.0155 110.252 49.5327 109.948 49.9746 109.552C50.4165 109.156 50.7741 108.676 51.0262 108.139C51.7994 106.312 50.8311 104.091 49.2146 102.936C48.2256 102.255 47.0571 101.881 45.8555 101.859C44.654 101.838 43.4729 102.171 42.4604 102.817C40.3667 101.895 37.8262 102.305 35.9241 103.575C34.0219 104.844 32.7203 106.878 32.0132 109.049C31.3619 110.918 31.2497 112.932 31.6895 114.861C32.0435 116.203 32.7165 117.44 33.6517 118.468C34.5868 119.496 35.7564 120.284 37.0616 120.765C37.57 120.965 38.1222 121.028 38.6628 120.948C39.2033 120.868 39.7134 120.648 40.1417 120.309C40.1417 120.309 41.329 119.276 41.7005 118.031C41.9858 117.074 42.1385 116.012 41.7374 115.336Z" fill="#2F2E41"/>
<path d="M67.2919 123.002C67.2489 123.191 67.2208 123.383 67.208 123.576L52.1418 132.245L48.4797 130.142L44.5757 135.24L50.696 139.591C51.1904 139.942 51.7858 140.124 52.3928 140.109C52.9998 140.095 53.5856 139.884 54.0623 139.509L69.5982 127.284C70.2993 127.543 71.0628 127.583 71.7872 127.399C72.5116 127.214 73.1625 126.814 73.6533 126.252C74.1441 125.689 74.4516 124.991 74.5349 124.25C74.6182 123.509 74.4733 122.76 74.1195 122.103C73.7657 121.446 73.2198 120.912 72.5543 120.572C71.8889 120.233 71.1355 120.103 70.3943 120.2C69.6531 120.298 68.9593 120.618 68.4051 121.119C67.8509 121.619 67.4626 122.276 67.2919 123.002V123.002Z" fill="#A0616A"/>
<path d="M51.6381 132.656L46.7687 138.95C46.6302 139.129 46.4545 139.276 46.2538 139.382C46.0531 139.487 45.832 139.548 45.6055 139.56C45.379 139.573 45.1526 139.536 44.9415 139.453C44.7304 139.37 44.5397 139.243 44.3824 139.08L38.87 133.371C37.9551 132.659 37.3607 131.614 37.2172 130.465C37.0737 129.317 37.3927 128.158 38.1043 127.244C38.8159 126.33 39.862 125.734 41.0133 125.588C42.1645 125.442 43.3268 125.757 44.2454 126.464L51.1592 130.32C51.3571 130.431 51.5289 130.582 51.6627 130.765C51.7965 130.948 51.8893 131.157 51.9348 131.379C51.9802 131.6 51.9772 131.829 51.926 132.049C51.8748 132.27 51.7766 132.476 51.6381 132.656Z" fill="#CCCCCC"/>
<path d="M101.17 238.226H0.409612C0.300981 238.226 0.196798 238.183 0.119983 238.106C0.0431691 238.029 1.52588e-05 237.926 1.52588e-05 237.817C1.52588e-05 237.709 0.0431691 237.605 0.119983 237.528C0.196798 237.452 0.300981 237.409 0.409612 237.409H101.17C101.279 237.409 101.383 237.452 101.46 237.528C101.537 237.605 101.58 237.709 101.58 237.817C101.58 237.926 101.537 238.029 101.46 238.106C101.383 238.183 101.279 238.226 101.17 238.226H101.17Z" fill="#CCCCCC"/>
</g>
<defs>
<clipPath id="clip0_85_102">
<rect width="316" height="237.451" fill="white" transform="translate(0 0.774292)"/>
</clipPath>
</defs>
</svg>
